<?xml version="1.0" encoding="UTF-8"?>
<svg width="800" height="400" xmlns="http://www.w3.org/2000/svg">
  <rect width="800" height="400" fill="white"/>
  <line x1="50" y1="350" x2="750" y2="350" stroke="black" stroke-width="2"/>
  <line x1="50" y1="50" x2="50" y2="350" stroke="black" stroke-width="2"/>
  <text x="400" y="30" text-anchor="middle" font-size="20" font-weight="bold">Losses per Episode</text>
  <text x="400" y="390" text-anchor="middle" font-size="14">Episode</text>
  <text x="15" y="200" text-anchor="middle" font-size="14" transform="rotate(-90 15 200)">Losses</text>
  <text x="50" y="370" text-anchor="middle" font-size="12">0</text>
  <text x="40" y="350" text-anchor="end" font-size="12">4.3</text>
  <text x="205" y="370" text-anchor="middle" font-size="12">2</text>
  <text x="40" y="275" text-anchor="end" font-size="12">5.3</text>
  <text x="438" y="370" text-anchor="middle" font-size="12">5</text>
  <text x="40" y="201" text-anchor="end" font-size="12">6.2</text>
  <text x="594" y="370" text-anchor="middle" font-size="12">7</text>
  <text x="40" y="126" text-anchor="end" font-size="12">7.2</text>
  <text x="827" y="370" text-anchor="middle" font-size="12">10</text>
  <text x="40" y="50" text-anchor="end" font-size="12">8.2</text>
  <polyline points="50,50 127,119 205,172 283,206 361,192 438,192 516,235 594,246 672,274 750,350" fill="none" stroke="#d62728" stroke-width="2" opacity="0.8"/>
  <polyline points="50,311 127,254 205,212 283,222 361,192 438,192 516,155 594,186 672,170 750,127" fill="none" stroke="#9467bd" stroke-width="2" opacity="0.8"/>
  <line x1="600" y1="70" x2="630" y2="70" stroke="#d62728" stroke-width="2"/>
  <text x="635" y="74" font-size="12">Actor-Critic (value loss)</text>
  <line x1="600" y1="90" x2="630" y2="90" stroke="#9467bd" stroke-width="2"/>
  <text x="635" y="94" font-size="12">Backoff-Tabular Q-learning</text>
</svg>
